<?xml version="1.0" encoding="UTF-8"?><svg id="Ebene_2" xmlns="http://www.w3.org/2000/svg" viewBox="0 0 573.5 408.67"><defs>
    <style>.cls-1{fill:#FFF;stroke-width:0px;}</style></defs>
    <path class="cls-1" d="M308.44,123.61l.05.03c1.24,1.03,2.57,2.11,3.96,3.25-5.09,10.59-7.8,22.06-8.73,33.74-2.96,40.35,22.23,67.3,58.63,80.09l1.92.69.16-2.01s1.41-17.41,1.41-17.41c1.2-15.7,2.65-35.6,3.64-51.32,2.47-.58,7.24-1.72,8.59-2.05-13.63-18.51-64.08-45.99-77.92-52.01,1.87,1.67,4.76,4.09,8.28,7.01ZM363.26,222.05l-1.67,15.02c-41.18-16.42-62.16-48.29-51.54-93.19,1.21-4.95,2.76-9.96,4.8-14.64.71.45,1.49.94,2.31,1.46,20.72,16.75,50.83,40.31,50.83,40.31,0,0,.59-.14,1.48-.35-2,15.77-4.4,35.6-6.2,51.39Z"/><path class="cls-1" d="M353.83,166.88c-5.62-.71-9.83,8.72-10.96,17.92-.6,4.86-.38,9.55.61,13.2,1.11,4.1,3.13,6.53,5.68,6.84.2.02.39.04.58.04,5.32,0,9.29-9.07,10.39-17.95,1.13-9.2-.69-19.35-6.29-20.04Z"/><path class="cls-1" d="M176.99,369l-.11,10c6.49.07,13.08.28,19.61.6l.5-9.98M196.99,369.62c4.71.23,9.37.53,13.98.89l-.77,9.97c6.54.5,13.1,1.13,19.52,1.88l1.16-9.93c4.72.55,9.35,1.16,13.88,1.82l-1.45,9.9c6.6.96,13.08,2.06,19.26,3.26l1.91-9.81c4.74.92,9.32,1.9,13.69,2.94l-2.29,9.73c6.7,1.57,12.94,3.28,18.55,5.07l3.03-9.53c4.81,1.53,9.22,3.13,13.17,4.78l-3.85,9.22c.5.21,1,.42,1.47.63,6.73,2.92,13.11,5.1,18.96,6.47l2.28-9.74h0c4.54,1.06,8.57,1.55,12.15,1.55.58,0,1.15-.01,1.71-.04l.44,9.99c13.28-.57,20.92-6.59,24.99-11.53l-4.89-4.02c30.98-13.06,52.34-17.87,78.06-17.63,8.28,21.61,23.38,27.12,40.12,27.12,4.79,0,9.72-.45,14.66-1.11l1.42-.19-.12-1.43c-1-11.54-1.72-24.87-2.04-31.5,1.53.13,3.1.21,4.74.21,9.71,0,21.07-2.23,32.15-6.39,27.2-10.22,44.69-28.37,39.83-41.32-2.39-6.38-9.8-10.33-20.85-11.14-10.65-.77-23.55,1.44-36.33,6.24-10.09,3.79-19.38,8.97-26.51,14.76-.32-9.47-.75-24.14-.75-34.59v-1.8l-1.77.32c-11.31,2.05-45.65,8.29-49.79,42.92-13.19,23.38-41.72,27.09-63.38,26.08-.29-.01-.58-.03-.87-.05-1.99-3.61-4.82-7.06-8.45-10.33l-6.69,7.43c-1.07-.96-2.25-1.93-3.56-2.91l.11-.21c1.96-3.84,12.26-23.57,22.17-34.68l2.35-2.63-3.53.14c-2.23.09-4.43.07-6.55-.06.05-.95.13-1.92.28-2.76,1.05-5.92,3.65-11.86,7.95-16.12,0,0,2.54-2.4,2.54-2.4-9.23,2.6-18.25,6.13-26.45,11.17-2.08,1.25-4.09,2.79-5.95,4.51-.59-7.7-4.17-14.93-7.09-21.96-3.85,3.29-8.52,5.61-13.2,7.63-11.26-11.07-19.61-24.82-26.82-38.51,2.33,1.45,5.04,2.88,8.03,4.27l.13.06c5.92,11.4,14.16,21.97,25.49,28.26.62-6.39.94-12.99,2.87-19.13,4.13,10.92,12.97,19.84,23.82,24.01-.23-7.25.13-14.68,1.89-21.74,1.17-.02,2.19-.05,3.15-.11.06,0,.11,0,.17-.01,10.19,7.91,20.36,15.98,29.44,25.13-1.3-5.28-1.53-10.75-1.47-16.18.05-5.06.35-10.18.95-15.21.69-.29,1.35-.58,1.97-.87l1.33-.62-.59-1.34c-23.39-52.85-15.18-107.05-7.54-125.03l.63-1.49c.44-.3.87-.63,1.3-.93,3.05-2.34,5.69-5.15,8.11-8.14,4.77-6.05,8.58-13.27,9.59-21.07.61-5.14.68-10.54-.21-15.67-1.37-7.79-6.1-14.77-10.37-20.97-8.57-12.37-14.22-26.13-18.12-40.66,0,0-3.29-11.68-3.29-11.68-2.32,19.52-5.1,41.88-17.73,57.46,3.02-9.13,4.04-19.25.07-28.28-3.13-7.19-9.59-12.62-15.46-17.22l-3.95-3.19s.04,4.98.04,4.98c.14,10.81-8.18,18.11-17.71,21.53-2.53-1.81-5.12-3.5-7.69-5.17-13.83-8.92-28.23-19.2-33.84-35.14L274.22,0s1.58,18.81,1.58,18.81c2.16,21.01-11.58,40.36-20.19,59.62-8.59-1.64-16.78-4.44-25.15-7.14,0,0,.41,3.59.41,3.59,1.37,14.34,3.16,32.16-4.35,45.07-4.44-2.42-8.65-5.24-12.58-8.34-5.77-4.66-11.05-10.45-16.02-15.97,0,0,.56,6.5.56,6.5.71,12.01,5.53,23.6,12.06,33.49,3.14,4.97,6.47,9.66,8.99,14.64,2.52,4.97,4.21,10.23,4.71,15.74.21,2.21.2,4.57.18,6.94-6.75-.32-14.15-.49-20.43-2.51-5.09-1.38-17.15-9.55-21.91-12.17,0,0,13.18,12.21,13.18,12.21,18.09,16.37.72,35.23,20.81,61.58,1.9,2.46,4.02,5.22,6.01,7.58,5.1,6,10.7,11.87,17.4,16.08-1,3.04-1.97,6-2.9,8.89-15.55-2.71-31.59-3.85-47.35-3.8-12.85.04-25.79.76-38.55,2.18l-2.31.26v.05c-24.04,2.91-47.8,7.89-71.26,13.78-24.58,6.35-48.88,13.74-72.48,23.16l.82.97,24.38,29.01c-2.12.98-4.14,2-6.03,3.06l4.88,8.73h.01-.01c-4.78,2.67-8.45,5.47-11.2,8.29l-7.14-7.02c-8.55,8.7-10.34,17.44-10.34,23.24,0,.85.03,1.71.11,2.55l9.46-.86.04.46h.52c.33,2.9,1.33,5.38,2.54,7.21l-8.35,5.51c2.66,4.02,8.18,12.39,22.59,15.07l1.83-9.83c2.41.44,5.19.7,8.41.7,1.72,0,3.56-.07,5.54-.23l.79,9.96c6.27-.5,13.43-1.73,21.28-3.67l-2.4-9.71c2.55-.63,5.24-1.35,8.08-2.17,1.79-.52,3.6-1.02,5.43-1.51l2.57,9.67c5.97-1.58,12.3-3.01,18.81-4.26l-1.87-9.82c4.54-.87,9.15-1.64,13.8-2.32l1.45,9.89c6.24-.92,12.75-1.69,19.33-2.31l-.93-9.95c4.63-.44,9.29-.79,13.96-1.07l.6,9.98c6.37-.39,12.95-.64,19.56-.75l-.17-10h0c2.79-.05,5.58-.07,8.36-.07,1.88,0,3.76.01,5.64.03M373.37,302.74c-1.66,2.36-2.87,5-3.82,7.72-1.05,3.18-1.79,6.53-1.65,9.89-6.26-.42-12.34-1.8-18.18-4.13,6.86-5.93,15.17-10.21,23.66-13.47ZM346.22,314.67c-3.98-1.89-7.88-4.27-11.66-7.12-2.05-1.64-4.07-3.34-6.06-5.09,3.63-1.94,7.16-3.97,10.37-6.58,1.56,3.14,3.1,6.28,4.47,9.48,1.32,3,2.22,6.11,2.88,9.31ZM332.6,291.75c.07.75.22,1.79.44,2.49-9.69-6.64-17.11-16.19-22.3-26.66,4.23,1.8,8.78,3.41,13.52,4.78,2.91.9,5.86,1.64,8.85,2.24.07.02.14.03.21.05-1.37,5.6-1.31,11.41-.71,17.1ZM338.34,275.66c5.06.91,10.06,1.49,14.97,1.78,1.79.14,3.57.22,5.37.25-1.18,6.19-1.05,12.59.2,18.76.2.96.44,1.75.82,2.7-9.6-4.9-17.74-13.29-21.35-23.48ZM393.95,301.69c-.74-1.09-1.8-2.06-2.66-3.02-7.36-7.54-15.22-14.56-23.3-21.33,7.62-.58,14.74-2,21.26-4.25.5-.16.99-.34,1.49-.51-.72,7.41-.4,14.86.95,22.18.52,2.38,1.06,4.82,2.27,6.94ZM393.34,268.21c-1.66.73-3.34,1.41-5.05,2.03-7.13,2.46-15.01,3.91-23.53,4.3-.73.04-1.5.07-2.33.09-2.85,0-5.71-.05-8.56-.15-5.54-.3-11.22-1.01-16.96-2.12-.5-.1-.99-.2-1.5-.31-.56-.12-1.12-.25-1.68-.37-3.1-.74-6.2-1.52-9.27-2.38-5.56-1.65-10.84-3.61-15.62-5.83l-.3-.14h-.01c-5.2-2.42-9.42-4.98-12.22-7.42l-5.81-5.07,3.49,6.88c8.12,15.98,17.49,32.56,30.95,45.54.31.3.63.58.94.88,1.93,1.9,4,3.67,6.19,5.29,3.98,3.07,8.08,5.63,12.26,7.67-.03.03-.06.06-.09.1,1.35.62,2.73,1.19,4.14,1.71,6.25,2.53,12.84,4.04,19.63,4.46,1.18.07,2.38.11,3.59.12-8.47,10.42-16.72,25.63-19.65,31.25-1.65-1.11-3.46-2.2-5.38-3.29l4.18-7.41c-4.65-2.63-10.06-5.2-16.09-7.65-1.09-.45-2.18-.89-3.27-1.32l-3.14,7.92c-4.35-1.73-8.73-3.38-13.15-4.95l2.86-8.02c-6.39-2.28-12.94-4.43-19.48-6.39l-2.45,8.16c-4.48-1.35-8.98-2.62-13.52-3.81l2.16-8.23c-6.56-1.73-13.27-3.31-19.94-4.72l-1.75,8.32c-4.57-.97-9.17-1.85-13.79-2.66l1.47-8.38c-6.68-1.17-13.5-2.2-20.25-3.05l-1.07,8.44-5.86-.69c4.77-16.3,43.02-145.17,79.89-213.67,18.01,13.75,60.54,36.56,82.33,40.68-6.27,16.7-16.33,68.8,7.63,124.22ZM343.91,41.27c2.32,2.02,4.55,4.04,6.5,6.22,8.7,9.36,8.62,22.31,7.28,34.4-2.27,2.57-4.83,4.94-7.74,7.05-4.91,3.5-10.5,5.57-16.32,6.5,3.35-12.32,2.44-26.94-8.62-35.16-.75-.59-1.52-1.15-2.28-1.71,9.92-1.1,18.78-7.63,21.18-17.3ZM235.93,77.52c6.31,1.39,12.91,2.26,19.37,1.61-6.92,15.72-10.26,31.39,1.44,47.87.36.51.74,1.02,1.12,1.51-10.86-.03-21.38-3.22-30.89-8.33,10.8-9.91,11.05-28.55,8.96-42.66ZM223.87,148.08c-5.27-10.5-12.97-19.21-17.06-30.07-1.24-3.2-2.21-6.48-2.91-9.83,2.47,2.28,5.03,4.44,7.73,6.44,13.23,9.58,29.82,15.93,46.3,13.99,2.96,3.85,6.41,7.28,10.08,10.44-3.75-3.99-7.23-8.24-9.99-12.88-20.66-33.8,18.85-60.83,22.61-97.17,9.87,15.49,27.35,23.85,42.61,33.67,10.74,7.07,12.17,20.98,10.27,32.8-6.3.98-12.88.62-19.21-.79,4,1.35,8.17,2.29,12.44,2.62,23.87,2.19,40.48-15.64,47.63-36.8,1.72-4.76,3-9.64,4.01-14.56,2.14,6.39,4.72,12.66,7.89,18.66,4.51,8.99,11.71,16.81,16.21,25.55,2.68,5.35,3.53,11.57,3.37,17.62.28,8.71-3.03,16.99-7.85,24.19-2.09,3.12-4.46,6.09-7.17,8.7-.34.29-.68.62-1.03.93l-1.8-.26c-20.88-3.04-67.23-28-84.17-41.47l-1.4-1.11-.85,1.57c-18.45,33.82-37.28,82.98-52.19,126.02-12.97-11.2-19.88-26.07-20.65-43.26-.4-5.9.32-11.42,0-17.45-.34-6.09-2.14-12.14-4.88-17.55ZM224.72,237.57c-2.33-3.33-4.88-7.02-7.01-10.5-4.28-7.07-6.76-14.86-7.46-23.09-.88-8.53.01-17.7-3.94-25.88-.79-1.66-1.77-3.21-2.89-4.66,6.82,1.42,14.05.78,20.97-.12-.02,1.88-.03,3.77.07,5.61.44,8.16,1.85,16.37,5.12,23.91,4.01,9.63,11.14,17.89,19.71,23.73-3.46,10-6.71,19.66-9.7,28.73-5.75-5.26-10.44-11.41-14.89-17.73ZM195.31,316.24c-4.64-.21-9.31-.35-13.99-.41l.13-9.99c-6.76-.09-13.64-.03-20.45.19l.32,9.99c-2.4.08-4.8.18-7.21.29.2-6.14.28-12.93.33-19.1-.03-3.74-.05-9.03.09-12.72.03-5.57-.79-11.11-2.46-16.44l.74-.08c21.15-2.34,42.55-3.74,63.83-3.42,4.89.07,11.53.27,16.42.56l3.29.19c-9.85,30.44-16.08,51.99-16.24,52.55l-.08.26c-1.59-.16-3.18-.33-4.78-.48l.93-9.96c-6.73-.63-13.6-1.1-20.42-1.41l-.45,9.98M161.36,316.02h0M146.71,306.72c-6.75.43-13.6,1.02-20.36,1.75l1.07,9.94c-4.62.5-9.24,1.07-13.88,1.72l-1.39-9.9c-2.86.4-5.74.83-8.62,1.29-.15-2.68-.32-5.34-.49-7.89-.28-3.51-.67-8.47-.78-11.94-.36-5.36-1.6-10.61-3.73-15.56,17.06-3.36,34.27-6,51.57-7.86-.23,1.23-.4,2.45-.53,3.68-.88,6.39-.05,12.74.84,19.07.88,8.21,2.01,17.17,3.19,25.31-2.09.1-4.17.22-6.27.35l-.63-9.97ZM96.81,276.46c-1.05,7.3.08,14.61,1.81,21.73.83,4.42,1.77,9.07,2.75,13.66-3.14.51-6.27,1.05-9.38,1.63l1.81,9.83c-4.57.84-9.14,1.75-13.72,2.74l-2.1-9.79c-5.36,1.15-10.77,2.42-16.14,3.76-1.3-2.31-2.6-4.61-3.86-6.81-1.8-3.05-4.34-7.37-5.98-10.46-2.75-4.78-6.27-9.06-10.48-12.65.14-.04.27-.08.41-.12,18.09-5.3,36.4-9.83,54.88-13.52ZM7.69,301.04c10.66-3.87,21.53-7.28,32.41-10.51.48,1.59,1.07,3.09,1.72,4.57,2.28,5.67,6,10.43,9.78,15.15,2.52,3.38,5.2,6.9,7.9,10.38-.46.12-.93.23-1.39.35l2.51,9.68c-4.5,1.16-9,2.39-13.5,3.7l-2.79-9.61-2.17.63-.36.12c-4.01,1.34-7.76,2.81-11.23,4.37l-22.88-28.82ZM171.59,321.81c1.26,0,2.52-.02,3.77-.02h.25c1.45,0,2.91,0,4.36.03h.04s.04,0,.04,0c.19,0,.38,0,.57,0,.22,0,.44,0,.66,0,4.49.06,9.12.19,13.76.4,1.14.05,2.28.11,3.43.18l1.72.09c1.58.1,3.14.2,4.71.31,1.14.08,2.3.17,3.46.26,2.27.17,4.33.34,6.36.54,4.37.39,8.88.89,13.42,1.46h.05s.37.06.37.06c1.42.18,2.85.36,4.31.57,1.03.14,2.08.29,3.16.45,1.31.19,2.62.38,3.96.59,1.16.17,2.32.36,3.49.56,1.48.25,2.95.49,4.46.76,4.34.75,8.89,1.63,13.53,2.61l.09.02.09.02c.13.02.25.05.37.08l.14.04.14.03c.99.21,1.96.42,2.97.64.67.14,1.36.3,2.04.45,1.25.28,2.5.57,3.78.88,1.5.35,3.01.72,4.5,1.09l.09.02.09.02c.11.02.21.05.31.08l.13.03h.02s.02.01.02.01c1.34.34,2.67.67,4,1.03h.01s.36.1.36.1c4.34,1.13,8.8,2.39,13.28,3.75.88.26,1.77.53,2.65.8l1.36.42c.66.2,1.31.41,1.98.62.99.32,1.98.64,2.96.95h.04s.04.03.04.03c.31.1.62.2.91.31l.07.03.07.02c1.18.38,2.34.78,3.55,1.19.36.12.72.24,1.08.37l.07.03.08.03c1.02.34,2.15.74,3.44,1.21l.29.1h.06s.04.03.04.03c4.26,1.51,8.6,3.15,12.88,4.86l.04.02.04.02c1.02.39,2.02.8,3.07,1.22,3.26,1.33,6.31,2.69,9.08,4.05l.04.02.04.02c.18.08.36.17.53.26l.4.2c1.38.7,2.79,1.45,4.2,2.23,4.21,2.39,7.7,4.81,10.36,7.22.72.65,1.33,1.25,1.91,1.87.13.13.25.27.4.43l.22.25c.08.09.16.19.24.28.71.82,1.32,1.64,1.82,2.43.14.22.27.42.38.62.13.23.27.47.38.7v.02s.03.02.03.02c.15.29.29.59.41.87l.03.07.03.07c.05.11.09.22.14.33.07.19.14.39.2.58h0l.08.24.03.1.02.05.07.26c.03.15.07.29.1.43.02.06.03.13.04.18v.04s.02.04.02.04c.18.87.25,1.75.21,2.66-.05,1.59-.45,3.27-1.21,5.14-.62,1.5-1.43,2.87-2.41,4.06l-.04.05-.04.06c-.1.13-.21.24-.32.36l-.15.17-.03.03-.03.03c-.08.09-.19.21-.35.36l-.08.07-.08.08c-.07.07-.13.13-.18.18l-1.56,1.25-.06.04-.09.06c-.62.42-1.3.8-2.02,1.14-.14.06-.27.13-.41.19h-.02s-.24.11-.24.11l-.54.21h0s-.09.04-.13.05h-.01s-.4.14-.4.14c-.09.03-.18.06-.27.09l-.61.18c-.25.07-.53.14-.8.21h-.09s-.22.07-.22.07c-.32.08-.57.13-.79.17h-.09s-.09.03-.09.03c-.22.04-.48.08-.76.12h-.09s-.09.03-.09.03c-.42.07-.88.12-1.41.16h-.04s-.04,0-.04,0c-.32.03-.64.05-.97.07h-.19c-.47.03-.95.04-1.44.04-2.95,0-6.23-.39-9.77-1.16l-1-.24-.18-.04c-.44-.1-.88-.21-1.32-.32l-.25-.07-.12-.02h-.02s-.07-.03-.07-.03h-.04s-.04-.02-.04-.02c-.53-.14-1.07-.29-1.64-.45-.62-.17-1.25-.37-1.94-.58-.36-.11-.73-.23-1.1-.36l-.27-.09c-1.25-.41-2.5-.85-3.69-1.31-.42-.16-.86-.33-1.33-.51-1.2-.46-2.51-1-4.22-1.74-.36-.16-.74-.32-1.11-.47l-.58-.24c-4.1-1.71-8.69-3.38-13.68-4.97-1.84-.58-3.36-1.05-4.8-1.47l-.54-.16c-.43-.12-.87-.25-1.31-.38l-.09-.03-.09-.02c-.3-.08-.62-.17-.94-.26-1.07-.31-2.16-.6-3.27-.9-.18-.05-.36-.1-.55-.15l-.34-.09c-.84-.23-1.69-.44-2.55-.66-.81-.22-1.67-.43-2.61-.65-.87-.22-1.76-.43-2.61-.62-4.35-1.03-9.03-2.04-13.9-2.99-.31-.06-.62-.12-.94-.18l-.58-.11c-.54-.11-1.09-.21-1.64-.31-3.67-.69-7.52-1.35-11.45-1.97-1.47-.23-2.95-.47-4.45-.69h-.07s-.07-.02-.07-.02c-.26-.03-.52-.07-.78-.11h-.03s-.03,0-.03,0c-4.67-.68-9.39-1.3-14.04-1.84-1.63-.19-3.3-.38-4.94-.55l-.24-.02c-1.4-.15-2.81-.3-4.19-.43l-.4-.04-.82-.08c-1.26-.12-2.53-.23-3.8-.35h-.02s-.72-.07-.72-.07c-1.54-.13-3.09-.26-4.64-.38-.15-.01-.32-.03-.51-.04-4.71-.37-9.42-.67-14.01-.89-1.66-.08-3.33-.16-5-.22-2.32-.1-4.75-.19-7.44-.25-.92-.03-1.84-.05-2.75-.07-1.41-.03-2.84-.05-4.26-.07h-.04s-.04,0-.04,0c-.09,0-.17,0-.26,0-.15,0-.31,0-.46,0-1.89-.02-3.78-.03-5.67-.03-2.85,0-5.7.02-8.47.07-1.69.03-3.39.06-5.07.11h-.07c-1.66.05-3.33.1-4.96.17-1.88.07-3.54.14-5.08.22-1.42.06-2.96.15-4.69.25-.13,0-.3,0-.49.03-4.78.29-9.4.64-13.76,1.05h0l-.27.02c-1.54.14-3.16.3-5.07.51-1.73.18-3.26.35-4.66.52-.18.02-.38.04-.57.07-1.36.16-2.72.33-4.04.51-.65.08-1.3.17-1.95.26-1.3.17-2.6.36-3.88.55-4.83.71-9.56,1.5-14.06,2.36h-.06s-.35.07-.35.07l-.06.02c-1.63.31-3.14.61-4.62.92-1.42.3-2.89.61-4.34.94h-.04s-.04.02-.04.02c-.22.05-.45.1-.67.15l-.18.04h-.04s-.04.02-.04.02c-1.23.29-2.46.57-3.64.86-.74.18-1.47.35-2.19.53-1.22.31-2.43.61-3.66.94-2.04.55-3.85,1.05-5.54,1.54-2.69.78-5.34,1.49-7.88,2.12-1.47.37-2.92.71-4.29,1l-.39.08c-.46.1-.91.19-1.37.29l-.45.09-.37.08-.63.12c-.33.06-.65.13-.97.18h-.04s-.04.01-.04.01c-1.63.31-3.27.58-4.88.8h-.05s-.05.01-.05.01c-.23.04-.46.06-.69.09l-.12.02-.46.06-.46.06c-.76.09-1.36.16-1.89.21h-.03s-.03,0-.03,0h-.14c-.4.05-.79.09-1.18.12-.12,0-.23.02-.35.03-1.7.13-3.33.2-4.87.2-2.69,0-5.16-.2-7.29-.59-.29-.06-.57-.11-.85-.17h-.06s-.06-.03-.06-.03c-.22-.05-.42-.09-.58-.14l-.08-.02-.09-.02c-.28-.07-.54-.14-.85-.23-.19-.06-.38-.12-.57-.18l-.06-.02-.06-.02c-.31-.1-.56-.19-.77-.27l-.1-.04-.1-.04c-.11-.04-.21-.08-.31-.12l-.11-.05-.11-.04c-.15-.06-.3-.12-.44-.19l-.04-.02-.04-.02c-.26-.12-.53-.25-.76-.38-.07-.04-.14-.08-.21-.12l-.1-.05-.07-.04-.07-.04c-.32-.18-.58-.34-.8-.5l-.11-.08-.11-.07c-.09-.06-.18-.12-.27-.19-.4-.31-.79-.63-1.16-.97-.07-.07-.14-.14-.21-.21l-.17-.16c-1.22-1.23-2.13-2.61-2.88-3.74-.51-.78-1.41-2.45-1.62-4.91v-.07s-.01-.07-.01-.07c-.01-.12-.02-.25-.03-.39,0-.2-.02-.4-.02-.6,0-.36,0-.63.03-.86,0-.1.02-.19.03-.29,0-.1.02-.2.03-.3v-.08s.02-.08.02-.08v-.06c.01-.06.02-.13.03-.2v-.03c.04-.18.07-.36.11-.53l.13-.62v-.02s.02-.09.03-.13c.01-.06.03-.11.04-.15l.03-.1.03-.11c.05-.19.11-.39.15-.51l.06-.18.04-.14.04-.11.03-.09c.69-1.92,1.8-3.81,3.3-5.63.15-.18.31-.36.46-.54.26-.31.48-.55.68-.75l.09-.1.09-.1c.05-.05.09-.11.15-.15l.09-.08.09-.09c2.26-2.32,5.21-4.55,8.77-6.63l1.1-.63c.76-.43,1.54-.85,2.32-1.23l.07-.04.07-.04c.23-.12.46-.24.7-.35l.03-.02.03-.02c.26-.13.52-.26.79-.38h.02s.02-.02.02-.02l.72-.35c.08-.04.16-.08.24-.11l.16-.07.13-.06c.32-.15.65-.3.95-.43,1.92-.84,3.87-1.62,5.82-2.33l.09-.03.09-.04c.17-.07.34-.13.52-.19l.11-.03.1-.04c.71-.26,1.43-.51,2.12-.74l.28-.08c.56-.16,1.12-.33,1.68-.48h.04s.04-.02.04-.02c4.32-1.26,8.8-2.49,13.32-3.65,3.8-.98,7.28-1.84,10.67-2.62,1.16-.28,2.32-.54,3.48-.81h.03s.03-.01.03-.01c.12-.03.25-.06.37-.08l.08-.02.08-.02c1.49-.33,2.98-.65,4.48-.98,4.41-.95,8.97-1.86,13.53-2.7,1.63-.3,3.25-.59,4.89-.87,1.61-.28,3.24-.55,4.9-.81,1.61-.27,3.23-.51,4.86-.76,1.62-.25,3.23-.47,4.85-.7l2.12-.3c3.8-.51,7.69-.98,11.57-1.4,1.65-.18,3.29-.35,4.93-.5l.21-.02c1.46-.14,2.9-.28,4.37-.4l.25-.02c.95-.08,1.89-.16,2.83-.23h.03s.03,0,.03,0c1.01-.09,2.02-.16,3.08-.23,1.24-.09,2.48-.18,3.71-.26l.23-.02c4.47-.29,9.07-.51,13.69-.66h.15c1.16-.04,2.33-.07,3.49-.1,1.18-.03,2.36-.05,3.55-.07.98-.02,1.96-.03,2.93-.04M439.99,372.47c-25.08,0-46.31,4.89-76.51,17.56.89-1.32,1.66-2.75,2.29-4.28,1.11-2.72,1.69-5.26,1.77-7.75h0s8.5.32,8.5.32c0-.33.02-.67.02-1,0-3.66-.71-7.21-2.13-10.62,20.88.87,47.64-2.65,62.35-22.91,0,.02,0,.04,0,.06-.01.79,0,1.59.01,2.39,0,.23.02.47.02.7.02.59.04,1.18.08,1.78.02.29.03.57.05.86.04.59.09,1.18.14,1.77.02.26.05.52.07.79.09.85.18,1.7.3,2.57.12.88.24,1.75.38,2.61.04.29.09.56.14.85.09.57.19,1.14.28,1.7.06.32.12.64.18.96.1.51.19,1.02.29,1.52.07.33.13.65.2.98.1.49.21.97.32,1.45.07.32.14.63.22.94.11.48.23.95.35,1.42.07.29.15.59.23.88.13.49.27.98.4,1.46.07.25.14.51.22.77.17.57.34,1.12.52,1.67.05.15.1.31.15.47,0,.03.02.05.03.08-.29,0-.58,0-.87,0ZM444.39,373.48c-1.99-5.46-3.49-11.9-4.45-19.15-.19-1.44-.34-2.85-.45-4.24-.16-2.09-.23-4.12-.21-6.09.02-1.97.14-3.88.34-5.72,3.21-28.42,27.09-36.73,45.63-40.31.05,11.3.53,26.52.83,35.28h0s.03.7.03.7c.02.44.03.86.05,1.27l-.8-1.32-.02.02c-2.92-4.48-8.66-11.95-15.19-13.19l-1.1-.21-.51,1c-14.36,28.09-9.95,42.74,2.53,58.53l.52.66.83-.1c6.63-.79,13.72-7.28,18.68-12.86.2.04.4.07.6.1.29.05.57.1.86.15.14.02.27.05.41.07.3,6.22.99,19.13,1.95,30.65-20.71,2.56-40.97.94-50.52-25.23ZM475.7,357.31c1.68,4.49,5.84,7.78,12.07,9.62-3.83,4.12-9.66,9.48-14.9,10.56-11.42-14.71-15.06-27.86-2.21-53.54,3.91,1.31,8.47,5.73,12.53,12.17-7.12,7.56-9.79,15.05-7.49,21.19ZM531.81,359.4c-13.22,4.97-26.79,7.1-37.24,5.85-1.26-.15-2.51-.36-3.72-.63-4.58-.99-10.43-3.25-12.35-8.37-1.82-4.85.41-11,6.28-17.46.05.09.1.19.16.28.22.39.42.78.63,1.17.08.15.16.3.24.45.26.51.51,1.03.74,1.52l3.16,6.84-.3-7.53s0-.04,0-.1c0-.02,0-.03,0-.05-.02-.61-.12-3.15-.26-6.84,7.07-6.17,16.78-11.75,27.43-15.75,12.38-4.65,24.84-6.8,35.05-6.06,9.82.71,16.3,3.98,18.26,9.2,4.13,11-13.3,28.15-38.07,37.46Z"/><circle class="cls-1" cx="40.98" cy="363.33" r="12.23"/><circle class="cls-1" cx="336.63" cy="375.57" r="12.23"/></svg>
